<svg id="tfm-logo" width="58" height="66" xmlns="http://www.w3.org/2000/svg">
  <g fill="none" fill-rule="evenodd">
    <path class="hex" d="M29 0L0 16.5v33L29 66l29-16.5v-33L29 0z"/>
    <path class="m" d="M41.33 24.5v17.73c0 .16.1.3.22.38l1.73 1c.3.16.66-.05.66-.38v-22.4c0-.34-.37-.55-.66-.38L29 28.56l-14.28-8.12c-.3-.17-.66.04-.66.37v1.98c0 .16.08.3.22.38l14.5 8.25c.07.04.14.06.22.06.08 0 .15-.02.22-.05l12.1-6.9zm-24.66 5.9l10.38 5.92c.13.08.3.08.44 0l1.72-.98c.3-.17.3-.6 0-.75l-14.5-8.26c-.3-.17-.66.04-.66.37v16.5c0 .34.37.55.66.4l1.73-1c.13-.07.22-.22.22-.37V30.4z"/>
  </g>
</svg>
