<svg version="1" xmlns="http://www.w3.org/2000/svg" width="682.667" height="682.667" viewBox="0 0 512.000000 512.000000"><path d="M253 2.3C249.8 4 204.9 29.8 194.5 36c-4.4 2.6-24.6 14.3-45 26-72.5 41.8-113 65.2-113.9 66-.5.5-.9 56.3-.9 127.5 0 122.7.1 126.7 1.9 128.5 1.1 1 15.2 9.4 31.4 18.8 16.2 9.3 58.5 33.7 94 54.2 35.4 20.4 66.4 38.3 68.7 39.6 2.4 1.3 5.4 3 6.6 3.8 9.4 5.9 17.5 10 19.1 9.7 1-.1 18.8-10.1 39.5-22 88-51 114.4-66.1 115.2-66.1.5 0 .9-.4.9-.8s1.2-1.3 2.8-2c1.5-.6 4.3-2.1 6.2-3.3 1.9-1.2 14.1-8.2 27-15.7 12.9-7.4 24.7-14.4 26.3-15.4l2.7-1.9V256.2c0-69.7-.4-127.2-.8-127.8-.8-1.1-5.7-4-89.9-52.6-30.7-17.7-65.5-37.7-77.3-44.6-11.8-6.8-23.1-13.3-25-14.4C253.5-.8 256.3.6 253 2.3zm51.1 50.2c25.5 14.8 51.8 30 58.4 33.8 6.6 3.8 14 8.1 16.5 9.5 5.7 3.2 32.7 18.8 44.5 25.7 5 2.9 14.3 8.3 20.8 12l11.7 6.7v231.3l-23.2 13.4c-12.8 7.4-35.9 20.7-51.3 29.6-15.4 8.9-35.6 20.6-45 26-9.3 5.4-25.3 14.6-35.5 20.5-10.2 5.8-24.5 14.1-31.8 18.4l-13.4 7.7-28.1-16.3c-15.5-9-29-16.8-29.9-17.3-8.5-4.9-25.3-14.6-29.8-17.1-3-1.7-15.4-8.9-27.5-15.9-12.1-7.1-23.1-13.4-24.5-14.2-1.4-.7-15.5-8.8-31.5-18.1l-29-16.8V256.1c0-114.3 0-115.4 2-116.8 1.5-1.1 66.3-38.6 85.5-49.5 1.9-1.1 8-4.6 13.5-7.8s11.6-6.6 13.5-7.7c1.9-1.1 14.3-8.3 27.5-16 13.2-7.6 24.7-14.2 25.5-14.6.8-.4 8.3-4.7 16.5-9.6 8.3-4.9 15.7-8.8 16.6-8.7.8.2 22.4 12.4 48 27.1z"/><path d="M144.9 160.6c-1.8 2.2-2.3 17.5-.6 19.7 1 1.4 6.2 4.5 23.2 14.2 2.2 1.2 9.6 5.5 16.5 9.5s14.3 8.3 16.6 9.5c2.2 1.3 5.9 3.5 8.2 4.9 2.3 1.4 4.3 2.6 4.5 2.6.2 0 6.7 3.7 14.3 8.1 16.5 9.7 19.7 11.5 24.7 14.2l3.8 1.9 19.7-11.2c10.8-6.2 21.7-12.5 24.2-14s6.5-3.9 9-5.3c2.5-1.3 11.9-6.8 21-12 9-5.3 16.7-9.2 17-8.7.3.4.5 30.6.5 66.9 0 42.9.3 66.5 1 67.4.5.7 4.5 3.2 8.7 5.6 12.5 6.8 11.3 15.6 11.3-85.5-.1-91.8 0-90.3-4.7-88.8-1.1.3-5.9 2.9-10.6 5.6-4.8 2.8-10.3 6-12.2 7.1-1.9 1-10.7 6.1-19.5 11.2-43.7 25.2-50.6 29.2-57.6 33.2-4.2 2.4-7.9 4.3-8.2 4.3-.5 0-25.2-14.2-34.7-19.9-1.9-1.1-4.2-2.4-5-2.8-.8-.4-14.9-8.5-31.3-18-27.9-16.2-37-21.3-38-21.3-.3 0-1.1.7-1.8 1.6zM144.8 205.4c-1.3 1.2-1.5 10.7-1.5 65.1 0 74.5-.7 69.6 9.5 64.3 3.4-1.8 7.4-4.2 8.8-5.3l2.5-2 .1-44.8c0-24.6.2-44.7.5-44.7s6.8 3.7 14.6 8.2c7.8 4.5 16.5 9.5 19.2 11 2.8 1.6 5.7 3.3 6.5 3.8 8.4 5.3 36.6 21 37.7 21 1.2 0 11-5.1 14.9-7.7.6-.5 1.4-1.8 1.8-3 .6-1.8-.1-2.7-4.9-5.7-3-2-5.8-3.6-6-3.6-.3 0-2.2-1.1-4.3-2.4-3.5-2.2-72.2-41.9-80.7-46.6-2.2-1.2-6-3.4-8.5-5-6.1-3.8-8.5-4.4-10.2-2.6z"/></svg>