<svg version="1" xmlns="http://www.w3.org/2000/svg" width="682.667" height="682.667" viewBox="0 0 512.000000 512.000000"><path d="M252.9 2.4c-2.8 1.4-41.7 23.9-64.7 37.3-7.8 4.6-14.7 8.3-15.2 8.3-.6 0-1 .4-1 1 0 .5-.4 1-.9 1s-7.6 3.9-15.8 8.6c-8.1 4.8-16.9 9.9-19.4 11.3C125.2 76 102.4 89.2 101 90c-.8.5-6.4 3.8-12.5 7.3-6 3.5-16.8 9.7-24 13.9-7.1 4.1-15 8.6-17.5 10-12.1 6.8-12 6.7-12.1 11.1 0 2.3-.1 59.5-.1 127-.1 118.9 0 123 1.8 124.7 1.1 1 13.8 8.6 28.4 17 31 17.9 114.9 66.3 143 82.5 10.7 6.2 21.1 12.2 23 13.3 1.9 1.1 8.3 4.7 14.2 8.1l10.6 6.2 3.4-1.9c1.8-1.1 12.1-7 22.8-13.2 10.7-6.2 20.9-12 22.5-13 1.7-.9 21.9-12.6 45-26 23.1-13.3 43.8-25.3 46-26.5 2.2-1.3 8.1-4.6 13-7.5 5-2.9 10.4-6 12-7 29.9-17.1 51.6-29.7 53.8-31.2l2.7-1.9V256.2c0-69.7-.4-127.2-.8-127.7-.6-.9-24.4-15-44.2-26.3-1.9-1-15-8.6-29-16.7s-27.1-15.6-29-16.7c-1.9-1.1-18.1-10.5-36-20.8s-43.5-25.1-57-32.9C267.6 7.4 256.3 1 256 1c-.3 0-1.7.6-3.1 1.4zm-96.4 161.7c5 2.8 23.6 13.6 41.5 23.9 17.9 10.3 34.1 19.7 36 20.8 1.9 1.1 7.5 4.3 12.4 7.1 10.3 6 8.6 6.2 23.1-2.4 5-2.9 18-10.4 29-16.8 11-6.3 29.8-17.1 41.7-24 11.9-6.9 22.6-12.8 23.6-13.1 4.7-1.5 4.6-2.9 4.7 88.8 0 100.5 1 92.3-10.3 85.9-3.7-2.1-7.6-4.3-8.7-5-1.9-1.1-2-2.5-2-68.7 0-37.2-.2-67.6-.4-67.6-.3 0-26.9 15.2-35.1 20-9.3 5.5-17.5 10.3-22 12.8-3 1.7-11.8 6.7-19.5 11.1-8.6 5-14.6 7.9-15.7 7.5-.9-.3-9.9-5.3-20-11.1s-19.6-11.4-21.3-12.3c-1.6-.9-11.8-6.8-22.5-13s-20.9-12.1-22.7-13.1c-19.2-10.9-24.4-14.3-24.8-16.3-1.5-7.2.6-19.6 3.4-19.6.4 0 4.7 2.3 9.6 5.1zm17.4 54.9c14.3 8.2 27.5 15.8 29.3 16.8 6.7 3.8 37.6 21.7 46.7 27.1 9.4 5.7 11.2 7.8 8.5 10.5-2 2-14 8.6-15.7 8.6-.8 0-7.5-3.5-14.9-7.9-7.4-4.3-15.4-8.9-17.9-10.2-2.4-1.4-5.5-3.2-6.9-4-5.1-3.3-37.6-21.9-38.2-21.9-.3 0-.6 20.1-.6 44.7l-.1 44.8-2.5 2c-1.4 1.1-5.4 3.5-8.8 5.3-10.2 5.3-9.5 10.3-9.4-64.7.1-55.9.3-64.3 1.6-65.1.8-.5 1.8-1 2.2-1 .4 0 12.4 6.7 26.7 15z"/></svg>